<?xml version="1.0" encoding="utf-8"?>
<!-- Generator: Adobe Illustrator 16.0.0, SVG Export Plug-In . SVG Version: 6.00 Build 0)  -->
<!DOCTYPE svg PUBLIC "-//W3C//DTD SVG 1.1//EN" "http://www.w3.org/Graphics/SVG/1.1/DTD/svg11.dtd">
<svg version="1.1" id="Capa_1" xmlns="http://www.w3.org/2000/svg" xmlns:xlink="http://www.w3.org/1999/xlink" x="0px" y="0px"
	 width="15.137px" height="23px" viewBox="0 0 15.137 23" enable-background="new 0 0 15.137 23" xml:space="preserve">
<g>
	<g>
		<g>
			<g>
				<path fill="none" stroke="#000000" stroke-miterlimit="10" d="M1.456,18.654c-0.054,0.777,0.297,1.759,0.654,2.285
					C2.597,21.661,3.724,22.5,5.296,22.5l0,0c0.303,0,0.61-0.031,0.918-0.094c2.164-0.438,2.806-2.164,3.548-4.166
					c0.319-0.864,0.649-1.752,1.128-2.627c0.405-0.744,0.91-1.463,1.398-2.158c0.748-1.064,1.517-2.157,1.9-3.307
					c0.856-2.561,0.471-5.115-1.062-7.009c-1.557-1.924-4.114-2.89-6.843-2.584c-2.748,0.31-4.291,1.328-5.326,3.517
					c-0.099,0.209-0.424,0.943-0.459,1.59"/>
			</g>
		</g>
	</g>
	<path fill="none" stroke="#000000" stroke-miterlimit="10" d="M3.445,15.523c0.021-0.02,1.991-1.91,2.896-3.281
		c0.01-0.016,0.02-0.028,0.029-0.04c0.006-0.007,0.628-0.785,0.476-1.53c-0.084-0.403-0.396-0.75-0.933-1.029
		c-0.017-0.01-1.398-0.694-2.498-1.006"/>
	<path fill="none" stroke="#000000" stroke-miterlimit="10" d="M9.722,11.218c1.2-2.305,0.734-3.759,0.28-4.652
		C8.95,4.501,7.19,4.276,6.483,4.275c-0.002,0-0.004,0-0.006,0c-3.146,0-3.19,3.067-3.191,3.197c0,0.013,0,0.027-0.001,0.041
		c-0.171,1.983,2.024,3.99,2.046,4.011"/>
</g>
</svg>
