<?xml version="1.0" encoding="utf-8"?>
<!-- Generator: Adobe Illustrator 16.0.0, SVG Export Plug-In . SVG Version: 6.00 Build 0)  -->
<!DOCTYPE svg PUBLIC "-//W3C//DTD SVG 1.1//EN" "http://www.w3.org/Graphics/SVG/1.1/DTD/svg11.dtd">
<svg version="1.1" id="Capa_1" xmlns="http://www.w3.org/2000/svg" xmlns:xlink="http://www.w3.org/1999/xlink" x="0px" y="0px"
	 width="20.614px" height="23px" viewBox="0 0 20.614 23" enable-background="new 0 0 20.614 23" xml:space="preserve">
<g>
	<path fill="none" stroke="#000000" stroke-miterlimit="10" d="M16.534,16.417c0.734-2.852,4.564-4.265,3.342-10.079
		C18.653,0.523,11.792-0.07,8.247,0.85C4.573,1.802,1.655,5.705,2.624,8.97C2.7,9.222,2.655,9.492,2.512,9.713
		c-0.449,0.692-1.65,2.204-1.977,3.09c-0.117,0.32,0.066,0.672,0.395,0.759c0.104,0.027,0.738,0.277,0.82,0.304
		c0.846,0.27,0.682,2.141,0.682,3.855c0,1.793,1.902,1.549,2.527,1.412c0.625-0.135,2.037-0.262,2.037,1.441
		c0,0.227,0.008,0.41,0.018,0.557c0.023,0.34,0.244,0.635,0.563,0.758c1.256,0.482,4.895,1.238,9.289-0.334
		c0.258-0.092,0.377-0.391,0.254-0.635C16.706,20.094,15.989,18.54,16.534,16.417z M15.124,13.741
		c-0.982,0.511-1.744-0.082-2.129-0.509c-0.215,0.096-0.455,0.149-0.707,0.149c-0.41,0-0.787-0.143-1.086-0.379
		c-0.012,0.036-1.338,0.342-1.568-0.582c0.02,0,0.041,0.002,0.063,0.002s0.045,0,0.066,0c0.822-0.024,1.611-0.469,2.35-1.324
		c-0.846,1.009-1.691,1.316-2.479,1.322c-0.174-0.313-0.074-0.489,0.119-0.684c-0.184,0.006-0.354-0.021-0.506-0.063
		c-0.043-0.014-0.084-0.025-0.129-0.041s-0.086-0.034-0.129-0.052c-0.338-0.149-0.547-0.353-0.551-0.358
		c-0.008-0.008-0.018-0.015-0.027-0.023c-0.459-0.477-0.447-1.129-0.367-1.565c-1.639,0.182-2.41-0.422-2.775-1.01
		c0.146-0.019,0.293-0.051,0.439-0.108c0.443-0.172,0.77-0.443,0.99-0.999c-0.244,0.733-0.869,0.998-1.43,1.107
		c-0.363-0.04-0.537-0.277-0.537-0.685C4.204,7.681,3.84,7.14,3.84,6.513c0-0.834,0.641-1.518,1.455-1.588
		C5.208,4.77,5.167,4.584,5.2,4.386c0.057-0.34,0.338-0.614,0.68-0.662C5.907,3.72,5.934,3.721,5.961,3.72
		c0.107,0.324,0.324,0.768,0.746,0.944c0.119,0.05,0.242,0.074,0.371,0.074c0.266,0,0.551-0.107,0.852-0.323
		C6.5,5.352,6.053,3.956,5.961,3.72c0.086-0.229,0.34-0.352,0.629-0.291c0.236-0.422,0.688-0.708,1.207-0.708
		c0.283,0,0.547,0.085,0.766,0.231c0.195-0.531,0.705-0.911,1.303-0.911c0.328,0,0.629,0.115,0.867,0.305
		c0.25-0.362,0.668-0.6,1.141-0.6c0.467,0,0.877,0.23,1.129,0.581c0.178-0.106,0.383-0.168,0.605-0.168
		c0.508,0,0.939,0.321,1.105,0.771c0.158-0.101,0.348-0.16,0.549-0.16c0.564,0,1.023,0.458,1.023,1.024
		c0,0.021-0.002,0.043-0.004,0.064c0.139-0.062,0.297-0.083,0.465-0.046c0.268,0.061,0.484,0.276,0.545,0.544
		c0.037,0.167,0.016,0.326-0.045,0.463c0.014-0.001,0.029-0.002,0.043-0.002c0.502,0,0.906,0.406,0.906,0.906
		c0,0.169-0.049,0.326-0.129,0.461c-0.576-0.086-1.285,0.06-1.84,0.851c-0.109,0.155,0.549-1.044,1.84-0.851
		c0.641,0.259,0.418,0.865,0.424,0.868c0.252,0.425,0.395,0.919,0.395,1.447c0,0.868-0.387,1.645-0.998,2.168
		c0.064,0.221,0.076,0.465,0.006,0.719c-0.125,0.459-0.496,0.82-0.959,0.934c-0.27,0.066-0.525,0.043-0.754-0.039
		C16.106,12.819,15.821,13.377,15.124,13.741z"/>
	<path fill="none" stroke="#000000" stroke-miterlimit="10" d="M9.834,6.18C9.282,6.782,9.098,7.703,9.381,8.47"/>
	<path fill="none" stroke="#000000" stroke-miterlimit="10" d="M16.292,5.013c-0.441-0.799-1.148-1.025-1.803-1.007
		c-0.051-0.237-0.15-0.581-0.338-0.883c0.154,0.139,0.285,0.703,0.326,0.881c-0.189,0.052-0.359,0.117-0.496,0.184"/>
	<path fill="none" stroke="#000000" stroke-miterlimit="10" d="M11.387,6.702c0.092,0.549,0.572,1.549,1.736,1.726
		c0.012,0.082,0.029,0.17,0.055,0.266c0.172,0.655,0.631,1.059,1.264,1.108c0.01,0.001,0.02,0.001,0.027,0.001"/>
	<path fill="none" stroke="#000000" stroke-miterlimit="10" d="M9.479,5.519c0.047-0.005,1.145-0.133,1.643-0.912
		c0.275-0.43,0.314-0.954,0.113-1.557"/>
	<path fill="none" stroke="#000000" stroke-miterlimit="10" d="M15.149,12.299c-0.479,0.205-0.875,0.237-1.178,0.094
		c-0.402-0.189-0.539-0.645-0.545-0.658"/>
</g>
</svg>
