<?xml version="1.0" encoding="utf-8"?>
<!-- Generator: Adobe Illustrator 16.0.0, SVG Export Plug-In . SVG Version: 6.00 Build 0)  -->
<!DOCTYPE svg PUBLIC "-//W3C//DTD SVG 1.1//EN" "http://www.w3.org/Graphics/SVG/1.1/DTD/svg11.dtd">
<svg version="1.1" id="Capa_1" xmlns="http://www.w3.org/2000/svg" xmlns:xlink="http://www.w3.org/1999/xlink" x="0px" y="0px"
	 width="39.275px" height="23px" viewBox="0 0 39.275 23" enable-background="new 0 0 39.275 23" xml:space="preserve">
<g id="eye_2_">
	<g>
		<path fill="none" stroke="#000000" stroke-miterlimit="10" d="M19.638,22.5c-7.727,0-15.292-4.395-19.062-11.004
			C4.366,4.876,11.92,0.5,19.638,0.5c7.728,0,15.292,4.394,19.063,11.002C34.911,18.124,27.356,22.5,19.638,22.5z"/>
		<path fill="none" stroke="#000000" stroke-miterlimit="10" d="M15.512,11.499c0-2.273,1.851-4.125,4.126-4.125V7.372"/>
		<path fill="none" stroke="#000000" stroke-miterlimit="10" d="M19.605,19.762c-4.553,0-8.257-3.703-8.257-8.258
			c0-4.553,3.704-8.259,8.257-8.259c4.555,0,8.258,3.706,8.258,8.259C27.863,16.059,24.16,19.762,19.605,19.762z"/>
	</g>
</g>
</svg>
